<svg width="381" height="634" viewBox="0 0 381 634" fill="none" xmlns="http://www.w3.org/2000/svg">
<path d="M337.888 601.251C335.732 594.825 322.247 593.553 315.765 595.258C304.975 597.39 299.58 605.967 299.037 614.092C297.95 628.23 321.16 641.077 335.732 629.522C342.734 624.374 345.978 610.236 339.496 603.835" fill="#ECDDFF" fill-opacity="0.5"/>
<mask id="mask0_81_1044" style="mask-type:luminance" maskUnits="userSpaceOnUse" x="275" y="85" width="123" height="111">
<path d="M275 85.5051H398V195.086H275V85.5051Z" fill="white"/>
</mask>
<g mask="url(#mask0_81_1044)">
<path d="M376.769 181.732C396.676 176.386 400.662 143.004 395.345 126.983C388.716 100.28 362.165 86.9314 336.932 85.595C293.12 82.9221 253.296 140.337 289.144 176.386C305.079 193.747 348.888 201.759 368.795 185.734" fill="#F5F5F5"/>
</g>
<path d="M15.9072 316.356C15.0248 313.329 9.50357 312.73 6.85871 313.533C2.43991 314.538 0.232806 318.582 0.0150745 322.412C-0.429555 329.077 9.06352 335.133 15.0225 329.686C17.8942 327.259 19.2167 320.594 16.5672 317.574" fill="#ECDDFF" fill-opacity="0.5"/>
<path d="M58.97 266.953C77.8418 286.355 123.936 270.943 141.748 255.352C172.759 231.877 174.4 193.805 161.107 164.394C138.466 113.117 39.5215 102.219 13.6965 164.394C0.469824 192.828 16.1064 247.306 48.9738 260.306" fill="url(#paint0_linear_81_1044)"/>
<path d="M103.061 287.981C85.3404 275.459 77.8614 252.382 78.9468 232.428C79.9062 214.755 91.3417 198.716 108.74 191.294C124.283 184.664 142.756 185.541 158.446 191.2C176.31 197.639 188.243 210.659 192.567 227.821C195.246 238.495 194.724 249.797 190.921 260.167C186.79 271.456 177.917 279.533 167.854 286.505C157.336 293.795 144.601 298.545 131.363 298.435C124.717 298.4 115.396 296.853 110.06 293.009C107.728 291.339 105.396 289.66 103.061 287.981C102.01 287.23 102.168 289.867 102.942 290.42L109.647 295.245C114.202 298.519 121.3 299.924 126.849 300.707C138.534 302.328 150.813 299.102 160.918 293.747C180.232 283.509 193.782 268.218 195.743 247.293C197.259 231.183 192.084 213.584 179.864 201.748C168.705 190.948 152.455 185.117 136.541 184.146C110.862 182.577 87.4272 195.947 79.5385 218.936C75.3474 231.157 76.846 245.008 80.4139 257.168C84.1534 269.91 91.4678 282.312 102.942 290.42C104.003 291.171 103.838 288.537 103.061 287.981Z" fill="#EAEAEA"/>
<path d="M149.749 193.594C170.561 200.721 185.726 223.066 187.331 243.449C188.734 261.094 177.041 276.793 160.608 284.123C145.685 290.753 127.252 290.89 112.336 284.231C91.2638 274.834 80.5156 248.906 86.513 228.205C90.2463 215.32 101.491 202.693 113.434 195.779C120.289 191.815 128.283 190.063 136.278 190.315C141.195 190.473 145.22 192.019 149.749 193.594C150.763 193.948 150.415 191.295 149.433 190.951C141.504 188.193 134.409 186.889 125.873 188.337C115.733 190.063 106.881 195.975 99.97 202.949C93.0279 209.961 87.1972 218.72 84.5127 227.983C81.6546 237.845 83.1167 248.382 86.6415 257.9C92.507 273.734 104.943 285.859 122.206 290.13C137.347 293.874 154.201 291.329 167.477 283.622C183.743 274.186 191.467 255.991 188.303 238.457C184.764 218.769 169.783 197.908 149.433 190.951C148.415 190.604 148.762 193.257 149.749 193.594Z" fill="#EAEAEA"/>
<path d="M98.2118 3.93696C97.0354 0.150567 89.6801 -0.599353 86.1446 0.405257C80.2592 1.66173 77.3165 6.71591 77.0201 11.5041C76.4273 19.8353 89.0873 27.4052 97.0354 20.5965C100.855 17.5629 102.624 9.23168 99.0888 5.45944" fill="#ECDDFF"/>
<defs>
<linearGradient id="paint0_linear_81_1044" x1="9" y1="189.598" x2="168.902" y2="200.351" gradientUnits="userSpaceOnUse">
<stop stop-color="#DFF6C8"/>
<stop offset="1" stop-color="#DFF6C8" stop-opacity="0.76"/>
</linearGradient>
</defs>
</svg>
