<svg width="346" height="358" viewBox="0 0 346 358" fill="none" xmlns="http://www.w3.org/2000/svg">
<path d="M192.842 155.789C201.117 155.35 209.392 154.441 217.605 153.374C250.806 149.093 283.886 144.163 315.435 132.177C325.149 128.531 334.714 124.371 342.15 116.304C318.273 120.138 294.73 124.794 271.218 129.605C247.706 134.416 224.339 140.273 200.121 146.643C205.174 139.855 205.195 139.949 214.436 138.127C246.124 131.988 277.139 123.446 306.084 108.754C315.367 104.019 324.487 98.9212 331.733 90.942C296.661 100.789 262.556 113.31 226.914 125.52C229.033 119.08 232.685 117.874 236.672 116.835C253.018 112.687 268.994 107.196 284.435 100.416C301.48 92.7652 318.058 84.2649 330.707 69.8199C331.862 68.516 334.281 67.497 332.499 64.2759L259.688 97.1054C258.833 97.7998 258.014 98.7708 256.937 97.4549C256.945 97.3641 258.088 96.3475 258.613 95.7739C265.712 89.0415 272.947 82.6418 281.821 78.0664C300.576 68.3728 319.046 58.1515 335.517 44.7638C340.07 41.0593 344.696 37.24 345.92 30.9444C343.121 29.6636 341.581 31.3575 339.947 32.2675C323.264 41.4899 307.054 51.5436 291.379 62.3901C280.553 69.8201 272.116 79.9812 261.232 87.2229L258.738 89.2072L257.313 89.8177C257.557 89.3245 257.801 88.8305 258.025 88.3657L260 85.771C274.615 65.8746 289.125 45.9685 300.677 22.746C293.488 23.59 290.185 27.5638 286.924 31.2529C269.266 51.198 256.721 74.4793 244.469 97.879C243.197 100.562 241.268 102.878 238.858 104.613C237.121 105.802 235.211 108.372 233.163 106.388C231.45 104.708 233.836 102.744 234.791 101.132C243.794 86.0267 253.118 71.0724 262.008 55.8794C270.067 42.1122 277.736 28.1119 286.582 12.4132C278.214 15.6383 273.691 20.3182 269.343 24.9234C247.025 49.0486 233.227 78.122 223.118 108.848C219.089 121.109 209.491 125.798 200.536 132.387C218.871 91.4792 236.427 50.4387 252.195 8.53131C247.875 10.3895 245.426 13.8359 242.955 17.2044C219.266 49.3744 206.141 86.2278 196.325 124.425C193.58 135.136 190.189 144.465 179.48 149.338C178.855 149.842 178.469 151.218 177.45 150.242C177.184 150.004 177.946 148.678 178.22 147.852C198.069 99.8155 214.888 50.5794 228.579 0.434712C226.159 1.75699 224.029 3.55007 222.314 5.71034C215.792 14.0406 210.349 23.1605 206.112 32.8559C189.066 70.2076 179.467 109.823 171.637 149.863C169.725 159.619 162.449 162.384 155.984 167.033C173.449 113.755 186.607 59.5703 198.29 4.92739C189.885 12.4637 184.813 21.8931 180.591 31.8271C162.99 73.0156 155.705 116.676 150.475 160.758C148.881 174.129 142.626 182.718 129.165 188.109C138.704 159.091 145.452 129.69 151.918 100.233C158.383 70.7744 164.719 41.2438 169.046 11.2509C157.879 22.8273 151.067 36.7566 145.566 51.2953C129.555 93.8486 124.975 138.295 124.335 183.356C124.182 193.808 117.466 202.626 106.429 206.118C119.755 144.581 127.164 82.3209 134.582 19.7886C130.774 19.8867 130.334 22.1702 129.292 23.728C122.894 33.6698 117.897 44.4469 114.444 55.7558C99.4507 102.552 97.4665 150.782 100.722 199.202C101.674 213.13 94.808 218.821 85.1482 225.965C89.0145 161.277 86.5494 97.6792 84.084 32.7757C82.3199 34.433 81.6458 34.8109 81.3337 35.3886C80.5081 36.9215 79.7511 38.5222 79.068 40.1443C69.9457 61.5887 67.0622 84.2278 66.6121 107.338C65.8732 146.767 71.0656 185.645 79.8876 224.043C80.3848 226.217 81.6203 228.931 79.7708 230.519C73.0134 236.356 67.369 243.62 59.0335 247.471C61.8007 236.838 60.3542 225.946 60.0914 215.226C59.0999 173.492 54.9741 131.98 51.184 90.4388C49.9799 77.4283 48.4082 64.4429 47.0061 51.4437C38.4108 66.4058 35.9271 82.3065 34.9068 98.6488C32.6822 134.612 37.9233 169.863 45.7637 204.781C48.9643 219.362 52.0438 234.099 57.8758 247.985L57.719 248.046L57.8545 248.059C54.6356 254.882 48.2106 258.289 42.3913 263.515C35.7609 204.191 24.0882 146.794 11.8248 88.232C9.55416 90.9481 8.11694 94.2638 7.68489 97.7786C4.80766 112.623 4.07424 127.805 5.50783 142.862C9.00919 182.598 19.9764 220.484 34.9861 257.215C38.2166 265.113 37.6669 270.364 30.5886 274.91C29.5744 275.655 28.6361 276.498 27.7862 277.427C25.1109 280.047 23.5303 280.385 22.5196 275.899C12.1839 230.416 -2.87008 186.329 -17.2838 142.058C-18.0757 139.629 -18.3135 136.796 -21.5278 134.443C-22.0461 137.889 -22.519 140.518 -22.8097 143.15C-24.5714 158.647 -22.34 173.836 -18.813 188.827C-11.3248 220.674 1.75967 250.341 17.118 279.083C20.4433 285.305 20.3375 285.463 13.606 288.902C-1.78437 252.667 -19.9814 217.855 -39.3829 183.584C-41.0774 195.912 -37.9117 207.269 -33.8514 218.331C-24.4721 243.898 -9.96332 266.59 6.6614 287.931C10.4283 292.842 9.66881 294.959 5.65874 298.7C-2.84983 306.529 -10.7931 314.99 -18.9709 323.185C-21.7215 325.965 -23.5446 329.227 -20.2199 332.35C-16.8942 335.473 -13.9065 333.733 -11.1362 330.742C-3.41944 322.443 4.72963 314.548 12.1934 306.028C16.0377 301.618 18.3431 301.501 23.001 305.326C47.4161 325.408 73.3063 343.183 103.745 353.075C112.077 355.787 120.548 358.315 131.45 356.756C128.336 354.792 126.938 353.81 125.452 352.972C92.6785 334.702 60.0204 316.338 25.6611 301.23C23.7194 300.38 19.5972 300.266 21.4998 296.966C22.9285 294.517 25.3699 290.325 29.9046 293.517C30.7409 294.076 31.6058 294.593 32.4944 295.066C66.0863 313.686 100.661 329.906 138.799 336.739C151.097 338.957 163.407 339.733 175.869 336.271C128.746 318.249 81.3593 301.417 32.3681 288.598C40.7307 277.928 41.818 277.666 53.0141 282.257C59.5257 284.935 66.0568 287.568 72.7063 289.909C109.619 302.886 146.942 314.063 186.673 313.084C196.465 312.848 206.233 312.049 215.359 307.543C160.865 293.767 106.255 281.742 50.1418 272.143C52.8339 268.856 56.6832 267.166 59.2537 264.355C63.2596 260.173 67.1543 259.627 72.5447 261.455C88.7848 266.829 105.343 271.184 122.123 274.497C155.534 281.34 189.152 285.804 223.261 281.578C234.021 280.249 244.759 278.173 254.564 272.562C194.45 263.666 134.276 257.058 72.3592 253.826C77.0617 249.497 80.6472 246.401 83.996 243.069C86.6245 240.461 89.347 240.108 92.9112 240.99C121.236 248.185 150.165 252.737 179.327 254.589C206.521 256.246 233.673 255.59 260.091 247.634C265.593 245.978 271.357 244.621 277.398 239.46C216.272 235.559 156.974 232.436 95.8846 233.536C99.7587 230.102 102.479 227.988 104.886 225.464C109.966 219.864 115.753 218.889 123.157 220.146C136.315 222.263 149.656 223.409 162.963 224.416C200.274 227.235 237.406 226.757 273.784 216.591C284.08 213.715 294.138 210.117 302.827 203.124C242.817 203.733 182.998 205.545 123.172 211.336C128.257 207.149 131.095 200.169 139.334 200.943C162.904 203.125 186.617 203.258 210.206 201.339C239.538 198.958 268.274 194.183 295.022 181.381C300.227 178.832 306.062 177.039 311.01 170.728C255.383 176.139 201.568 182.328 147.86 190.638C151.99 186.115 156.361 181.82 160.955 177.77C162.801 176.059 164.916 176.03 167.199 175.971C193.36 175.515 219.464 173.4 245.353 169.637C270.3 165.903 294.949 160.941 317.618 149.2C320.684 147.603 324.347 146.443 326.349 141.588C275.689 148.164 226.23 156.19 175.472 166.918C181.003 160.222 185.559 156.168 192.842 155.789ZM231.786 107.793C231.951 107.975 232.1 108.172 232.249 108.368L231.961 108.842L231.241 108.258L231.786 107.793ZM58.4481 249.512L58.4677 249.302L58.5424 249.476L58.4481 249.512Z" fill="#302B35" fill-opacity="0.02"/>
</svg>
