<svg width="24" height="14" viewBox="0 0 24 14" fill="none" xmlns="http://www.w3.org/2000/svg">
<path d="M18.4769 2.52027L8.04213 12.9551C7.83831 13.1588 7.57133 13.2608 7.30435 13.2608C7.03737 13.2608 6.77039 13.1588 6.56657 12.9551L0.305706 6.69418C-0.101902 6.28657 -0.101902 5.62625 0.305706 5.21864C0.713315 4.81103 1.37364 4.81103 1.78125 5.21864L7.30435 10.7417L17.0014 1.04473C17.409 0.637121 18.0693 0.637121 18.4769 1.04473C18.8845 1.45234 18.8845 2.11266 18.4769 2.52027ZM22.2187 1.04472L11.784 11.4795C11.3764 11.8871 11.3764 12.5474 11.784 12.955C11.9878 13.1588 12.2547 13.2607 12.5217 13.2607C12.7887 13.2607 13.0557 13.1588 13.2595 12.955L23.6943 2.52026C24.1019 2.11265 24.1019 1.45233 23.6943 1.04472C23.2867 0.637112 22.6264 0.637112 22.2187 1.04472Z" fill="url(#paint0_linear_47_202)"/>
<defs>
<linearGradient id="paint0_linear_47_202" x1="6.82745" y1="-1.3031" x2="17.1726" y2="9.04201" gradientUnits="userSpaceOnUse">
<stop stop-color="#8C4CC0"/>
<stop offset="1" stop-color="#ECDDFF"/>
</linearGradient>
</defs>
</svg>
