<svg width="170" height="85" viewBox="0 0 170 85" fill="none" xmlns="http://www.w3.org/2000/svg">
<path d="M11.3817 60.0614C10.6939 60.0614 10.0061 60.0399 9.31826 59.9969C8.67343 59.9539 8.00711 59.8894 7.3193 59.8034C5.25585 59.4595 3.55781 58.6642 2.22517 57.4176C0.892529 56.2139 0.226209 54.6233 0.226209 52.6459C0.226209 52.302 0.247703 51.9581 0.290691 51.6141C0.33368 51.2272 0.398162 50.8404 0.484139 50.4535C0.914023 48.9919 1.79529 47.4873 3.12793 45.9397C4.50356 44.3921 6.15861 42.909 8.09309 41.4904C10.0276 40.0288 12.091 38.7391 14.2834 37.6214C16.4758 36.4607 18.6252 35.558 20.7317 34.9131C18.0664 34.9131 16.0459 34.3543 14.6703 33.2366C13.3377 32.0759 12.6714 30.6573 12.6714 28.9807C12.6714 27.4762 12.9078 26.079 13.3807 24.7894C13.8965 23.4567 14.5843 22.1886 15.4441 20.9849C12.7358 20.641 10.35 20.1896 8.28653 19.6308C6.26608 19.0289 4.76149 18.4271 3.77275 17.8253C3.25689 17.4384 2.99896 17.1589 2.99896 16.987C2.99896 16.858 3.10643 16.7935 3.32137 16.7935C3.49333 16.7935 3.83723 16.901 4.3531 17.1159C5.72872 17.8038 7.44826 18.3626 9.5117 18.7925C11.6181 19.2224 13.9395 19.5448 16.4758 19.7597C17.9374 18.1262 19.7215 16.6646 21.8279 15.3749C23.9343 14.0853 26.1697 12.9891 28.5341 12.0863C30.8984 11.1835 33.2198 10.4957 35.4982 10.0229C37.7766 9.54999 39.84 9.31355 41.6885 9.31355C42.7632 9.31355 43.9454 9.46401 45.2351 9.76493C46.5247 10.0658 47.6209 10.5602 48.5237 11.248C49.4694 11.8929 49.9423 12.7741 49.9423 13.8918C49.9423 15.2245 49.4264 16.3637 48.3947 17.3094C47.363 18.2122 46.0518 18.9644 44.4613 19.5663C42.9137 20.1251 41.2801 20.5765 39.5606 20.9204C37.8411 21.2213 36.2935 21.4363 34.9179 21.5652C33.8002 21.6512 32.661 21.7372 31.5003 21.8232C30.3396 21.8662 29.1789 21.8877 28.0182 21.8877C26.5996 21.8877 25.181 21.8447 23.7624 21.7587C22.3437 21.6727 20.9251 21.5652 19.5065 21.4363C18.2598 22.597 17.1851 23.8651 16.2824 25.2408C15.3796 26.5734 14.9282 27.949 14.9282 29.3676C14.9282 30.5713 15.5731 31.6675 16.8627 32.6563C18.1954 33.645 19.9364 34.1394 22.0858 34.1394C23.1605 34.1394 24.2997 33.9889 25.5034 33.688C26.7071 33.3871 27.5668 33.2366 28.0827 33.2366C28.5556 33.1506 28.9855 33.3871 29.3723 33.9459C29.7592 34.5048 29.9527 35.0206 29.9527 35.4935C29.9527 35.9664 29.7377 36.2028 29.3079 36.2028C27.9752 36.3318 26.5351 36.6327 24.9875 37.1056C21.8494 38.0513 18.6467 39.5344 15.3796 41.5549C13.7891 42.5436 12.306 43.5968 10.9303 44.7145C9.5117 45.8752 8.24355 47.0789 7.12585 48.3255C6.05114 49.5722 5.19137 50.8189 4.54654 52.0655C4.37459 52.4094 4.24562 52.7533 4.15965 53.0972C4.07367 53.3982 4.03068 53.6776 4.03068 53.9355C4.03068 55.698 6.15861 56.5793 10.4145 56.5793C11.8761 56.5793 13.5741 56.4074 15.5086 56.0634C17.4861 55.7195 19.5065 55.2467 21.57 54.6448C23.6764 54.043 25.6539 53.3337 27.5024 52.5169C28.5771 52.044 29.8237 51.3562 31.2423 50.4535C32.661 49.5077 34.0581 48.476 35.4337 47.3583C36.8093 46.1976 37.9485 45.0154 38.8513 43.8117C39.754 42.6081 40.2054 41.4904 40.2054 40.4587C40.2054 39.6419 39.6681 39.2335 38.5934 39.2335C37.8196 39.2335 36.8523 39.4484 35.6916 39.8783C34.531 40.2652 33.2843 40.7811 31.9517 41.4259C30.662 42.0707 29.4153 42.8015 28.2117 43.6183C27.008 44.4351 25.9978 45.2304 25.181 46.0042C24.7941 46.3481 24.4287 46.52 24.0848 46.52C23.8268 46.52 23.6979 46.3696 23.6979 46.0686C23.6979 45.8537 23.7624 45.6388 23.8913 45.4238C24.0203 45.1659 24.2352 44.908 24.5362 44.65C25.052 44.2201 25.8258 43.5968 26.8575 42.78C27.8892 41.9632 29.0284 41.1465 30.2751 40.3297C31.5648 39.5129 32.8544 38.8251 34.1441 38.2662C35.4337 37.6644 36.5729 37.3635 37.5616 37.3635C38.8513 37.3635 39.969 37.6644 40.9147 38.2662C41.8605 38.8681 42.3334 39.9858 42.3334 41.6193C42.3334 42.995 41.925 44.3706 41.1082 45.7462C40.2914 47.0789 39.2382 48.3685 37.9485 49.6152C36.7019 50.8189 35.3477 51.9151 33.8861 52.9038C32.4675 53.8925 31.1349 54.7093 29.8882 55.3541C27.3949 56.6438 24.5362 57.74 21.312 58.6427C18.0879 59.5885 14.7778 60.0614 11.3817 60.0614ZM21.3765 19.9532C26.1482 20.0392 30.6835 19.7382 34.9823 19.0504C35.8851 18.9215 37.0243 18.728 38.3999 18.4701C39.8185 18.1692 41.1942 17.8038 42.5268 17.3739C43.9024 16.944 45.0416 16.4496 45.9444 15.8908C46.8901 15.3319 47.363 14.6871 47.363 13.9563C47.363 13.4834 46.9976 13.161 46.2668 12.9891C45.536 12.7741 44.6762 12.6452 43.6875 12.6022C42.7417 12.5592 41.9035 12.5377 41.1727 12.5377C38.6793 12.5377 36.2505 12.9031 33.8861 13.6339C31.5218 14.3217 29.4798 15.0955 27.7603 15.9553C26.9435 16.4281 25.9548 17.0085 24.7941 17.6963C23.6764 18.3411 22.5372 19.0934 21.3765 19.9532ZM52.0244 64.8331C50.6917 64.8331 49.7245 64.4892 49.1227 63.8014C48.5638 63.1565 48.2844 62.2968 48.2844 61.2221C48.2844 60.5342 48.4134 59.7175 48.6713 58.7717C49.0152 57.3101 49.5955 55.7195 50.4123 54C51.2721 52.3235 52.0244 50.9908 52.6692 50.0021C53.1851 49.2283 53.7009 48.433 54.2168 47.6162C54.7327 46.7994 55.27 45.9612 55.8289 45.1014L58.9885 40.0718C59.5903 39.126 59.8913 38.1803 59.8913 37.2345C59.8913 36.2028 59.4829 35.4075 58.6661 34.8487L57.7633 34.2683C57.4194 34.0534 57.1615 33.8599 56.9895 33.688L56.0868 35.1711L55.184 36.5897C54.2813 37.8364 53.2495 39.212 52.0889 40.7166C50.9282 42.2212 49.8105 43.6613 48.7358 45.0369C47.6611 46.4125 46.7583 47.5088 46.0275 48.3255C45.8985 48.4545 45.7696 48.519 45.6406 48.519C45.4257 48.519 45.2752 48.4115 45.1892 48.1966C45.0603 47.9816 45.0818 47.7882 45.2537 47.6162C46.9303 45.7247 48.5423 43.7903 50.0899 41.8128C51.6805 39.7923 53.1206 37.6859 54.4102 35.4935L55.184 34.2038L55.9578 32.8497C55.6139 32.6348 55.2915 32.2479 54.9906 31.689C54.6897 31.0872 54.5392 30.5283 54.5392 30.0125C54.5392 29.2817 54.8401 28.8518 55.442 28.7228H55.5064C55.9363 28.7228 56.3662 28.9807 56.7961 29.4966C57.226 30.0984 57.4194 31.1947 57.3764 32.7852C58.4082 33.559 59.4184 34.0749 60.4071 34.3328C61.3959 34.5907 62.1911 34.9131 62.793 35.3C63.4378 35.644 63.7602 36.3318 63.7602 37.3635C63.7602 37.5354 63.7387 37.7289 63.6957 37.9438C63.6957 38.1588 63.6742 38.3737 63.6312 38.5887C63.4163 39.6204 62.8575 40.8885 61.9547 42.3931C61.0949 43.8977 60.1277 45.4453 59.053 47.0359C57.9783 48.5835 57.054 49.9376 56.2802 51.0983C55.5064 52.3449 54.6897 53.6991 53.8299 55.1607C52.9701 56.6653 52.2608 58.0839 51.702 59.4165C51.1861 60.7492 51.0142 61.8024 51.1861 62.5762C51.3151 63.0061 51.616 63.221 52.0889 63.221C52.7767 63.221 53.615 62.9416 54.6037 62.3827C55.9363 61.6089 57.1615 60.7707 58.2792 59.8679C59.3969 59.0081 60.5576 57.9764 61.7613 56.7728C62.4061 56.1279 63.2229 55.2252 64.2116 54.0645C65.2433 52.9468 66.318 51.7431 67.4357 50.4535C68.5534 49.1208 69.5851 47.9171 70.5309 46.8424C70.9178 46.3266 71.3477 45.8107 71.8205 45.2948L73.1102 43.8762C73.2392 43.7473 73.3466 43.6828 73.4326 43.6828C73.6905 43.6828 73.8195 43.8547 73.8195 44.1986C73.8195 44.3276 73.712 44.5426 73.4971 44.8435C73.0672 45.4453 72.5728 46.0686 72.014 46.7135C71.4981 47.3583 71.0038 47.9601 70.5309 48.519C69.4132 49.8086 68.1665 51.2702 66.7909 52.9038C65.4583 54.4944 64.1041 56.0634 62.7285 57.611C61.3959 59.1586 60.1062 60.4912 58.8595 61.6089C57.8708 62.4687 56.8391 63.221 55.7644 63.8658C54.6897 64.5107 53.443 64.8331 52.0244 64.8331ZM80.8375 62.7696C79.5909 62.7696 78.7311 62.4257 78.2582 61.7379C77.7853 61.0931 77.5489 60.1473 77.5489 58.9007C77.5489 57.525 77.9143 55.956 78.6451 54.1934C79.3759 52.4739 80.2357 50.7759 81.2244 49.0993C82.2132 47.3798 83.1159 45.8752 83.9327 44.5855C84.1046 44.3276 84.4056 43.8547 84.8354 43.1669C85.2653 42.4361 85.7597 41.6193 86.3185 40.7166C86.8774 39.8138 87.3933 38.9756 87.8661 38.2018C88.339 37.385 88.6829 36.7402 88.8979 36.2673C89.4997 35.0636 89.8006 34.1823 89.8006 33.6235C89.8006 33.2796 89.6716 33.1076 89.4137 33.1076C88.7689 33.1076 87.4362 33.9889 85.4158 35.7514C84.642 36.4822 83.6748 37.4495 82.5141 38.6531C81.3534 39.8568 80.1282 41.1895 78.8386 42.6511C77.5919 44.0697 76.4097 45.5528 75.292 47.1004C74.2173 48.6479 73.3575 50.131 72.7127 51.5497C72.4548 52.1085 72.1539 52.5169 71.81 52.7748C71.509 52.9898 71.2081 53.0972 70.9072 53.0972C70.1764 53.0972 69.811 52.6889 69.811 51.8721C69.811 51.5712 69.8755 51.2702 70.0044 50.9693C70.4343 49.7656 71.0577 48.1966 71.8744 46.2621C72.6912 44.2846 73.5725 42.1782 74.5182 39.9428C75.464 37.7074 76.3882 35.558 77.291 33.4945C78.2367 31.4311 79.032 29.6901 79.6768 28.2714C78.7741 28.5294 77.9573 28.7443 77.2265 28.9163C76.4957 29.0882 75.8509 29.1742 75.292 29.1742C74.9481 29.1742 74.7117 29.1527 74.5827 29.1097C74.1098 28.9807 73.8734 28.8518 73.8734 28.7228C73.8734 28.5939 74.1528 28.5079 74.7117 28.4649C75.3565 28.4649 76.1518 28.3574 77.0975 28.1425C78.0433 27.8845 79.075 27.5621 80.1927 27.1752C80.8805 25.6706 81.6973 23.9726 82.643 22.0811C83.5888 20.1896 84.6635 18.2766 85.8672 16.3422C87.0708 14.4077 88.382 12.5162 89.8006 10.6677C91.2192 8.81919 92.7668 7.18563 94.4434 5.76701C96.1199 4.34839 97.9039 3.2092 99.7954 2.34943C101.687 1.44667 103.686 0.995297 105.792 0.995297C106.91 0.995297 107.791 1.3607 108.436 2.0915C109.081 2.77931 109.403 3.76805 109.403 5.0577C109.403 6.26138 109.016 7.52953 108.243 8.86217C107.469 10.2378 106.416 11.6134 105.083 12.9891C103.75 14.3217 102.224 15.6543 100.505 16.987C98.7422 18.3196 96.9152 19.5878 95.0237 20.7915C93.1322 21.9951 91.1977 23.1128 89.2203 24.1446C87.2428 25.1763 85.3728 26.0575 83.6103 26.7883C82.1487 29.7116 80.7516 32.6778 79.4189 35.6869C78.0863 38.6531 76.8826 41.4904 75.8079 44.1986C76.1088 43.7688 76.6462 43.1024 77.4199 42.1997C78.1937 41.2969 79.0535 40.3297 79.9993 39.298C80.945 38.2662 81.8048 37.3635 82.5786 36.5897C83.4383 35.7729 84.4056 34.9346 85.4803 34.0749C86.598 33.1721 87.6727 32.4413 88.7044 31.8825C89.7791 31.2806 90.7249 30.9797 91.5416 30.9797C92.4014 30.9797 93.0032 31.1517 93.3472 31.4956C93.734 31.8395 93.9275 32.3123 93.9275 32.9142C93.9275 33.8169 93.6266 34.8702 93.0247 36.0738C92.4659 37.2775 91.8855 38.3952 91.2837 39.4269C90.9828 39.9858 90.4454 40.8455 89.6716 42.0062C88.9408 43.1669 88.167 44.3706 87.3503 45.6173C86.5335 46.8639 85.8887 47.8742 85.4158 48.6479C84.771 49.5937 84.0832 50.6684 83.3523 51.8721C82.6645 53.0757 82.0412 54.2149 81.4824 55.2897C80.9665 56.4074 80.6656 57.2671 80.5796 57.869C80.5366 58.1269 80.4936 58.3418 80.4506 58.5138C80.4506 58.7287 80.4506 58.9437 80.4506 59.1586C80.4506 60.1903 80.8375 60.7062 81.6113 60.7062C81.9982 60.7062 82.3851 60.6202 82.772 60.4483C83.2019 60.3193 83.8037 59.9109 84.5775 59.2231C85.3943 58.5783 86.2326 57.8045 87.0923 56.9017C87.9521 56.0419 88.7689 55.1822 89.5427 54.3224C90.3165 53.5056 90.8968 52.8608 91.2837 52.3879L96.0554 46.8424C96.2704 46.5845 96.4853 46.3481 96.7002 46.1331C96.9582 45.8752 97.1946 45.6173 97.4096 45.3593C97.7965 44.8435 98.2048 44.3491 98.6347 43.8762C98.7637 43.7473 98.8927 43.6828 99.0216 43.6828C99.2796 43.6828 99.4085 43.8332 99.4085 44.1342C99.4085 44.3061 99.301 44.5426 99.0861 44.8435C98.6132 45.4453 98.0974 46.0686 97.5385 46.7135C97.0227 47.3583 96.5283 47.9601 96.0554 48.519C95.7115 48.9489 95.1742 49.6152 94.4434 50.5179C93.7555 51.4207 93.0032 52.3879 92.1865 53.4197C91.3697 54.4514 90.5959 55.3756 89.8651 56.1924C89.0053 57.1382 88.0381 58.1269 86.9634 59.1586C85.8887 60.1903 84.814 61.0501 83.7392 61.7379C82.6645 62.4257 81.6973 62.7696 80.8375 62.7696ZM84.3841 25.3697C86.0606 24.5959 87.8016 23.6932 89.6072 22.6615C91.3697 21.6727 93.1107 20.6195 94.8303 19.5018C96.5498 18.3411 98.1833 17.1374 99.7309 15.8908C101.236 14.6871 102.568 13.4404 103.729 12.1508C104.933 10.8611 105.857 9.61447 106.502 8.4108C107.146 7.16413 107.469 5.96046 107.469 4.79977C107.469 4.41288 107.383 4.02598 107.211 3.63908C107.039 3.25219 106.523 3.05874 105.663 3.05874C104.331 3.05874 102.977 3.42414 101.601 4.15494C100.225 4.84276 98.8712 5.76701 97.5385 6.9277C96.2489 8.04539 95.0452 9.24907 93.9275 10.5387C92.8098 11.7854 91.8426 12.9676 91.0258 14.0853C88.8764 17.0085 86.6625 20.77 84.3841 25.3697Z" fill="#302B35" fill-opacity="0.86"/>
<path d="M111.305 54.2579C109.585 54.2579 108.725 53.1402 108.725 50.9048C108.725 50.131 108.854 49.2713 109.112 48.3255C109.198 48.0246 109.392 47.5302 109.692 46.8424C109.993 46.1546 110.337 45.4023 110.724 44.5855C111.111 43.7258 111.477 42.9305 111.82 42.1997C112.164 41.4259 112.401 40.8241 112.53 40.3942C111.627 41.7698 110.617 43.1454 109.499 44.5211C108.424 45.8537 107.264 46.9714 106.017 47.8742C104.77 48.7769 103.438 49.2283 102.019 49.2283C100.686 49.1853 99.7407 48.8199 99.1818 48.1321C98.623 47.4443 98.3435 46.606 98.3435 45.6173C98.3435 44.4566 98.6015 43.1884 99.1173 41.8128C99.6332 40.4372 100.214 39.212 100.858 38.1373C101.976 36.3748 103.33 34.6552 104.921 32.9787C106.511 31.3021 108.209 29.9265 110.015 28.8518C111.82 27.7341 113.54 27.1752 115.174 27.1752C116.033 27.1752 116.872 27.3257 117.688 27.6266C118.505 27.8845 119.322 28.3359 120.139 28.9807C120.783 29.4966 121.106 30.0555 121.106 30.6573C121.106 31.2591 120.848 31.5601 120.332 31.5601C119.945 31.5601 119.666 31.3021 119.494 30.7863C118.935 29.3247 118.032 28.5939 116.786 28.5939C115.668 28.5939 114.421 29.0882 113.046 30.077C111.67 31.0657 110.316 32.2479 108.983 33.6235C107.479 35.1281 106.146 36.7831 104.985 38.5887C103.825 40.3942 102.943 42.0277 102.341 43.4893C101.783 44.822 101.503 45.8107 101.503 46.4555C101.503 47.2723 101.826 47.6807 102.47 47.6807C103.201 47.6807 104.276 47.1219 105.695 46.0042C106.64 45.2734 107.672 44.3276 108.79 43.1669C109.907 41.9632 110.961 40.7811 111.949 39.6204C112.938 38.4597 113.712 37.5569 114.271 36.9121C114.744 36.1813 115.131 35.601 115.431 35.1711C115.603 34.9131 115.883 34.7197 116.27 34.5907C116.657 34.4618 117.065 34.3973 117.495 34.3973C118.011 34.3973 118.441 34.5048 118.785 34.7197C119.128 34.8917 119.214 35.1711 119.042 35.558C118.871 35.9449 118.484 36.6972 117.882 37.8149C117.323 38.8896 116.678 40.1147 115.947 41.4904C115.259 42.866 114.593 44.1771 113.948 45.4238C113.346 46.6705 112.895 47.6377 112.594 48.3255C111.992 49.6582 111.691 50.6469 111.691 51.2917C111.691 51.8506 111.906 52.13 112.336 52.13C112.637 52.13 113.089 51.9581 113.69 51.6141C114.636 51.1413 115.582 50.475 116.528 49.6152C117.473 48.7124 118.376 47.7667 119.236 46.7779C119.709 46.3051 120.139 45.8537 120.526 45.4238C120.912 44.9939 121.278 44.5426 121.622 44.0697C121.751 43.9407 121.858 43.8762 121.944 43.8762C122.202 43.8762 122.331 44.0697 122.331 44.4566C122.331 44.6715 122.245 44.865 122.073 45.0369C121.6 45.6388 121.127 46.2191 120.655 46.7779C120.182 47.3368 119.687 47.8956 119.171 48.4545C118.699 49.0133 118.204 49.5722 117.688 50.131C117.215 50.6469 116.721 51.1413 116.205 51.6141C115.259 52.5169 114.357 53.1832 113.497 53.6131C112.68 54.043 111.949 54.2579 111.305 54.2579ZM134.093 54.0645C133.362 54.0645 132.846 53.7851 132.545 53.2262C132.244 52.6674 132.094 52.001 132.094 51.2272C132.094 49.8516 132.459 48.2825 133.19 46.52C133.964 44.7575 134.845 42.952 135.834 41.1035C136.822 39.255 137.682 37.5139 138.413 35.8804C139.187 34.2038 139.574 32.7852 139.574 31.6245C139.574 31.0657 139.466 30.6143 139.251 30.2704C139.079 29.9265 138.8 29.7545 138.413 29.7545C137.897 29.7545 137.274 30.034 136.543 30.5928C135.726 31.1517 134.802 32.0759 133.77 33.3656L131.384 36.3318C130.138 37.8793 128.87 39.5344 127.58 41.2969C126.333 43.0165 125.194 44.6285 124.162 46.1331C123.174 47.6377 122.443 48.8414 121.97 49.7441C121.583 50.432 121.132 50.7759 120.616 50.7759C120.315 50.7759 120.035 50.6254 119.777 50.3245C119.52 50.0236 119.391 49.6367 119.391 49.1638C119.391 48.8629 119.455 48.519 119.584 48.1321C121.089 45.2519 122.507 42.1782 123.84 38.9111C125.215 35.644 126.57 32.6778 127.902 30.0125C128.289 29.2817 128.934 28.6583 129.837 28.1425C130.74 27.5836 131.535 27.3042 132.223 27.3042C132.867 27.3042 133.19 27.5406 133.19 28.0135C133.19 28.2714 132.996 28.7658 132.61 29.4966C132.137 30.2274 131.556 31.1732 130.868 32.3338C130.181 33.4945 129.471 34.7197 128.741 36.0094C128.01 37.299 127.322 38.5242 126.677 39.6849C126.075 40.8455 125.624 41.7913 125.323 42.5221C125.796 41.8773 126.441 40.91 127.257 39.6204C128.117 38.3307 129.278 36.8261 130.74 35.1066L132.803 32.6563C134.179 31.0227 135.447 29.905 136.607 29.3032C137.768 28.7013 138.843 28.4004 139.832 28.4004C140.605 28.4004 141.272 28.5939 141.831 28.9807C142.389 29.3676 142.669 30.034 142.669 30.9797C142.669 32.0974 142.432 33.2151 141.959 34.3328C141.487 35.4075 141.1 36.2673 140.799 36.9121C140.498 37.5999 140.068 38.5457 139.509 39.7493C138.95 40.953 138.391 42.2427 137.833 43.6183C137.274 44.9939 136.801 46.2836 136.414 47.4873C136.027 48.6909 135.834 49.6152 135.834 50.26C135.834 50.8189 136.006 51.0983 136.349 51.0983C136.779 51.0983 137.338 50.8833 138.026 50.4535C138.757 49.9806 139.466 49.4647 140.154 48.9059C140.885 48.347 141.444 47.8956 141.831 47.5517C143.249 46.2621 144.689 44.7575 146.151 43.038C146.366 42.78 146.538 42.6511 146.667 42.6511C146.796 42.6511 146.86 42.78 146.86 43.038C146.86 43.1669 146.796 43.3389 146.667 43.5538C146.581 43.7688 146.473 44.0052 146.344 44.2631C146.086 44.693 145.678 45.2734 145.119 46.0042C144.56 46.692 143.98 47.3583 143.378 48.0031C142.475 48.9919 141.465 49.9376 140.347 50.8404C139.273 51.7431 138.069 52.5599 136.736 53.2907C136.392 53.4626 136.07 53.6131 135.769 53.7421C135.511 53.828 135.296 53.8925 135.124 53.9355C134.952 53.9785 134.78 54 134.608 54C134.437 54.043 134.265 54.0645 134.093 54.0645ZM158.155 54.2579C156.436 54.2579 155.576 53.1402 155.576 50.9048C155.576 50.131 155.705 49.2713 155.963 48.3255C156.049 48.0246 156.242 47.5302 156.543 46.8424C156.844 46.1546 157.188 45.4023 157.575 44.5855C157.962 43.7258 158.327 42.9305 158.671 42.1997C159.015 41.4259 159.251 40.8241 159.38 40.3942C158.478 41.7698 157.467 43.1454 156.35 44.5211C155.275 45.8537 154.114 46.9714 152.868 47.8742C151.621 48.7769 150.288 49.2283 148.87 49.2283C147.537 49.1853 146.591 48.8199 146.032 48.1321C145.474 47.4443 145.194 46.606 145.194 45.6173C145.194 44.4566 145.452 43.1884 145.968 41.8128C146.484 40.4372 147.064 39.212 147.709 38.1373C148.827 36.3748 150.181 34.6552 151.771 32.9787C153.362 31.3021 155.06 29.9265 156.866 28.8518C158.671 27.7341 160.391 27.1752 162.024 27.1752C162.884 27.1752 163.722 27.3257 164.539 27.6266C165.356 27.8845 166.173 28.3359 166.989 28.9807C167.634 29.4966 167.957 30.0555 167.957 30.6573C167.957 31.2591 167.699 31.5601 167.183 31.5601C166.796 31.5601 166.516 31.3021 166.344 30.7863C165.786 29.3247 164.883 28.5939 163.636 28.5939C162.519 28.5939 161.272 29.0882 159.896 30.077C158.521 31.0657 157.166 32.2479 155.834 33.6235C154.329 35.1281 152.997 36.7831 151.836 38.5887C150.675 40.3942 149.794 42.0277 149.192 43.4893C148.633 44.822 148.354 45.8107 148.354 46.4555C148.354 47.2723 148.676 47.6807 149.321 47.6807C150.052 47.6807 151.127 47.1219 152.545 46.0042C153.491 45.2734 154.523 44.3276 155.64 43.1669C156.758 41.9632 157.811 40.7811 158.8 39.6204C159.789 38.4597 160.563 37.5569 161.121 36.9121C161.594 36.1813 161.981 35.601 162.282 35.1711C162.454 34.9131 162.733 34.7197 163.12 34.5907C163.507 34.4618 163.916 34.3973 164.346 34.3973C164.861 34.3973 165.291 34.5048 165.635 34.7197C165.979 34.8917 166.065 35.1711 165.893 35.558C165.721 35.9449 165.334 36.6972 164.732 37.8149C164.174 38.8896 163.529 40.1147 162.798 41.4904C162.11 42.866 161.444 44.1771 160.799 45.4238C160.197 46.6705 159.746 47.6377 159.445 48.3255C158.843 49.6582 158.542 50.6469 158.542 51.2917C158.542 51.8506 158.757 52.13 159.187 52.13C159.488 52.13 159.939 51.9581 160.541 51.6141C161.487 51.1413 162.433 50.475 163.378 49.6152C164.324 48.7124 165.227 47.7667 166.087 46.7779C166.559 46.3051 166.989 45.8537 167.376 45.4238C167.763 44.9939 168.129 44.5426 168.472 44.0697C168.601 43.9407 168.709 43.8762 168.795 43.8762C169.053 43.8762 169.182 44.0697 169.182 44.4566C169.182 44.6715 169.096 44.865 168.924 45.0369C168.451 45.6388 167.978 46.2191 167.505 46.7779C167.032 47.3368 166.538 47.8956 166.022 48.4545C165.549 49.0133 165.055 49.5722 164.539 50.131C164.066 50.6469 163.572 51.1413 163.056 51.6141C162.11 52.5169 161.207 53.1832 160.348 53.6131C159.531 54.043 158.8 54.2579 158.155 54.2579Z" fill="#6D58B6"/>
<path d="M4.95564 81.1483C4.34614 81.1483 3.81077 81.0082 3.34953 80.7282C2.89652 80.4482 2.54235 80.0652 2.28702 79.5792C2.03993 79.0933 1.91638 78.5414 1.91638 77.9237C1.91638 77.3059 2.04405 76.7582 2.29938 76.2805C2.55471 75.7945 2.90888 75.4157 3.36188 75.1439C3.81489 74.8638 4.35026 74.7238 4.968 74.7238C5.47042 74.7238 5.91519 74.8268 6.3023 75.0327C6.68942 75.2386 6.99005 75.5269 7.2042 75.8975V72.1046H8.24199V81H7.30304L7.2042 79.9869C7.00652 80.2834 6.72236 80.5511 6.35172 80.79C5.98108 81.0288 5.51572 81.1483 4.95564 81.1483ZM5.06683 80.2464C5.47866 80.2464 5.84106 80.1516 6.15405 79.9622C6.47527 79.7645 6.72236 79.4927 6.89533 79.1468C7.07653 78.8009 7.16713 78.3973 7.16713 77.936C7.16713 77.4748 7.07653 77.0712 6.89533 76.7253C6.72236 76.3793 6.47527 76.1117 6.15405 75.9222C5.84106 75.7245 5.47866 75.6257 5.06683 75.6257C4.66325 75.6257 4.30084 75.7245 3.97962 75.9222C3.66663 76.1117 3.41954 76.3793 3.23834 76.7253C3.06537 77.0712 2.97889 77.4748 2.97889 77.936C2.97889 78.3973 3.06537 78.8009 3.23834 79.1468C3.41954 79.4927 3.66663 79.7645 3.97962 79.9622C4.30084 80.1516 4.66325 80.2464 5.06683 80.2464ZM16.2964 81V74.8721H17.2354L17.3218 76.0458C17.5113 75.6422 17.7996 75.321 18.1867 75.0821C18.5738 74.8432 19.0515 74.7238 19.6198 74.7238V75.811H19.3357C18.9732 75.811 18.6397 75.8769 18.3349 76.0087C18.0302 76.1322 17.7872 76.3464 17.606 76.6511C17.4248 76.9559 17.3342 77.376 17.3342 77.9113V81H16.2964ZM27.0109 81.0618C26.805 81.0618 26.632 80.9959 26.492 80.8641C26.3602 80.7241 26.2943 80.5552 26.2943 80.3576C26.2943 80.1599 26.3602 79.9952 26.492 79.8634C26.632 79.7233 26.805 79.6533 27.0109 79.6533C27.2086 79.6533 27.3733 79.7233 27.5051 79.8634C27.6451 79.9952 27.7151 80.1599 27.7151 80.3576C27.7151 80.5552 27.6451 80.7241 27.5051 80.8641C27.3733 80.9959 27.2086 81.0618 27.0109 81.0618ZM35.4283 81V74.8721H36.3673L36.4291 75.9716C36.6267 75.5845 36.9109 75.2798 37.2815 75.0574C37.6522 74.835 38.0722 74.7238 38.5417 74.7238C39.2665 74.7238 39.8431 74.9462 40.2714 75.391C40.7079 75.8275 40.9262 76.5029 40.9262 77.4171V81H39.8884V77.5283C39.8884 76.2517 39.3612 75.6133 38.307 75.6133C37.7798 75.6133 37.3392 75.8069 36.985 76.194C36.6391 76.5729 36.4661 77.1165 36.4661 77.8248V81H35.4283ZM51.0974 81.1483C50.3726 81.1483 49.796 80.93 49.3677 80.4935C48.9394 80.0487 48.7253 79.3692 48.7253 78.4549V74.8721H49.7631V78.3437C49.7631 79.6204 50.2861 80.2587 51.3321 80.2587C51.8675 80.2587 52.3081 80.0693 52.6541 79.6904C53.0082 79.3033 53.1853 78.7556 53.1853 78.0472V74.8721H54.2231V81H53.2842L53.21 79.9004C53.0206 80.2875 52.7364 80.5923 52.3576 80.8147C51.9869 81.0371 51.5669 81.1483 51.0974 81.1483ZM64.7156 81C64.1555 81 63.7148 80.8641 63.3936 80.5923C63.0724 80.3205 62.9118 79.8304 62.9118 79.1221V75.7492H61.8493V74.8721H62.9118L63.0477 73.4019H63.9496V74.8721H65.7534V75.7492H63.9496V79.1221C63.9496 79.5092 64.0278 79.7728 64.1843 79.9128C64.3408 80.0446 64.6167 80.1105 65.0121 80.1105H65.6545V81H64.7156ZM73.4345 81V74.8721H74.3735L74.4599 76.0458C74.6494 75.6422 74.9377 75.321 75.3248 75.0821C75.7119 74.8432 76.1896 74.7238 76.7579 74.7238V75.811H76.4738C76.1114 75.811 75.7778 75.8769 75.473 76.0087C75.1683 76.1322 74.9253 76.3464 74.7441 76.6511C74.5629 76.9559 74.4723 77.376 74.4723 77.9113V81H73.4345ZM84.9155 73.513C84.7096 73.513 84.5366 73.4472 84.3966 73.3154C84.2648 73.1754 84.1989 73.0024 84.1989 72.7965C84.1989 72.5988 84.2648 72.4341 84.3966 72.3023C84.5366 72.1705 84.7096 72.1046 84.9155 72.1046C85.1132 72.1046 85.282 72.1705 85.422 72.3023C85.5621 72.4341 85.6321 72.5988 85.6321 72.7965C85.6321 73.0024 85.5621 73.1754 85.422 73.3154C85.282 73.4472 85.1132 73.513 84.9155 73.513ZM84.3966 81V74.8721H85.4344V81H84.3966ZM96.0256 81C95.4655 81 95.0248 80.8641 94.7036 80.5923C94.3824 80.3205 94.2218 79.8304 94.2218 79.1221V75.7492H93.1593V74.8721H94.2218L94.3577 73.4019H95.2596V74.8721H97.0634V75.7492H95.2596V79.1221C95.2596 79.5092 95.3378 79.7728 95.4943 79.9128C95.6508 80.0446 95.9267 80.1105 96.3221 80.1105H96.9645V81H96.0256ZM105.375 73.513C105.169 73.513 104.996 73.4472 104.856 73.3154C104.724 73.1754 104.658 73.0024 104.658 72.7965C104.658 72.5988 104.724 72.4341 104.856 72.3023C104.996 72.1705 105.169 72.1046 105.375 72.1046C105.572 72.1046 105.741 72.1705 105.881 72.3023C106.021 72.4341 106.091 72.5988 106.091 72.7965C106.091 73.0024 106.021 73.1754 105.881 73.3154C105.741 73.4472 105.572 73.513 105.375 73.513ZM104.856 81V74.8721H105.894V81H104.856ZM116.855 81.1483C116.279 81.1483 115.76 81.0165 115.299 80.7529C114.837 80.4893 114.471 80.1187 114.199 79.641C113.935 79.155 113.804 78.5867 113.804 77.936C113.804 77.2854 113.94 76.7212 114.211 76.2434C114.483 75.7575 114.85 75.3827 115.311 75.1192C115.78 74.8556 116.303 74.7238 116.88 74.7238C117.457 74.7238 117.975 74.8556 118.437 75.1192C118.898 75.3827 119.26 75.7575 119.524 76.2434C119.796 76.7212 119.932 77.2854 119.932 77.936C119.932 78.5867 119.796 79.155 119.524 79.641C119.252 80.1187 118.881 80.4893 118.412 80.7529C117.951 81.0165 117.432 81.1483 116.855 81.1483ZM116.855 80.2587C117.209 80.2587 117.539 80.1722 117.844 79.9993C118.148 79.8263 118.396 79.5669 118.585 79.2209C118.774 78.875 118.869 78.4467 118.869 77.936C118.869 77.4254 118.774 76.9971 118.585 76.6511C118.404 76.3052 118.161 76.0458 117.856 75.8728C117.551 75.6998 117.226 75.6133 116.88 75.6133C116.526 75.6133 116.196 75.6998 115.892 75.8728C115.587 76.0458 115.34 76.3052 115.15 76.6511C114.961 76.9971 114.866 77.4254 114.866 77.936C114.866 78.4467 114.961 78.875 115.15 79.2209C115.34 79.5669 115.583 79.8263 115.879 79.9993C116.184 80.1722 116.509 80.2587 116.855 80.2587ZM127.737 81V74.8721H128.676L128.738 75.9716C128.936 75.5845 129.22 75.2798 129.591 75.0574C129.961 74.835 130.381 74.7238 130.851 74.7238C131.576 74.7238 132.152 74.9462 132.58 75.391C133.017 75.8275 133.235 76.5029 133.235 77.4171V81H132.197V77.5283C132.197 76.2517 131.67 75.6133 130.616 75.6133C130.089 75.6133 129.648 75.8069 129.294 76.194C128.948 76.5729 128.775 77.1165 128.775 77.8248V81H127.737ZM141.8 73.513C141.594 73.513 141.421 73.4472 141.281 73.3154C141.15 73.1754 141.084 73.0024 141.084 72.7965C141.084 72.5988 141.15 72.4341 141.281 72.3023C141.421 72.1705 141.594 72.1046 141.8 72.1046C141.998 72.1046 142.167 72.1705 142.307 72.3023C142.447 72.4341 142.517 72.5988 142.517 72.7965C142.517 73.0024 142.447 73.1754 142.307 73.3154C142.167 73.4472 141.998 73.513 141.8 73.513ZM141.281 81V74.8721H142.319V81H141.281ZM152.836 81.1483C152.103 81.1483 151.494 80.9629 151.008 80.5923C150.522 80.2217 150.238 79.7192 150.155 79.085H151.218C151.284 79.4062 151.452 79.6863 151.724 79.9251C152.004 80.1558 152.379 80.2711 152.849 80.2711C153.285 80.2711 153.606 80.1805 153.812 79.9993C154.018 79.8098 154.121 79.5874 154.121 79.3321C154.121 78.9615 153.985 78.7144 153.713 78.5908C153.45 78.4673 153.075 78.3561 152.589 78.2573C152.26 78.1914 151.93 78.0966 151.601 77.9731C151.271 77.8495 150.995 77.6766 150.773 77.4542C150.551 77.2236 150.439 76.9229 150.439 76.5523C150.439 76.0169 150.637 75.5804 151.032 75.2427C151.436 74.8968 151.98 74.7238 152.663 74.7238C153.314 74.7238 153.845 74.8885 154.257 75.218C154.677 75.5392 154.92 76.0005 154.986 76.6017H153.96C153.919 76.2887 153.783 76.0458 153.553 75.8728C153.33 75.6916 153.03 75.601 152.651 75.601C152.28 75.601 151.992 75.6792 151.786 75.8357C151.588 75.9922 151.49 76.1981 151.49 76.4535C151.49 76.7006 151.617 76.8941 151.873 77.0341C152.136 77.1742 152.49 77.2936 152.935 77.3924C153.314 77.4748 153.672 77.5777 154.01 77.7013C154.356 77.8166 154.636 77.9937 154.85 78.2325C155.072 78.4632 155.184 78.8009 155.184 79.2456C155.192 79.7975 154.982 80.2546 154.553 80.617C154.133 80.9712 153.561 81.1483 152.836 81.1483ZM165.173 81C164.613 81 164.172 80.8641 163.851 80.5923C163.53 80.3205 163.369 79.8304 163.369 79.1221V75.7492H162.307V74.8721H163.369L163.505 73.4019H164.407V74.8721H166.211V75.7492H164.407V79.1221C164.407 79.5092 164.485 79.7728 164.642 79.9128C164.798 80.0446 165.074 80.1105 165.469 80.1105H166.112V81H165.173Z" fill="#4D4852"/>
</svg>
