<svg width="25" height="22" viewBox="0 0 25 22" fill="none" xmlns="http://www.w3.org/2000/svg">
<path d="M6.14887 22C4.26106 22 2.75081 21.321 1.61812 19.963C0.539374 18.5506 0 16.7309 0 14.5037C0 11.4617 0.809062 8.71852 2.42718 6.27407C4.09925 3.77531 6.6343 1.68395 10.0324 0L10.9223 1.3037C9.30421 2.28148 7.82093 3.66666 6.47249 5.45926C5.17799 7.19753 4.53074 8.96296 4.53074 10.7556C4.53074 11.2444 4.66559 11.6518 4.93528 11.9778C5.20496 12.2494 5.60949 12.3852 6.14887 12.3852C7.4973 12.3852 8.62999 12.8741 9.54693 13.8518C10.5178 14.7753 11.0032 15.916 11.0032 17.2741C11.0032 18.6321 10.5178 19.7728 9.54693 20.6963C8.62999 21.5654 7.4973 22 6.14887 22ZM20.1456 22C18.2578 22 16.7476 21.321 15.6149 19.963C14.5361 18.5506 13.9968 16.7309 13.9968 14.5037C13.9968 11.4617 14.8058 8.71852 16.4239 6.27407C18.096 3.77531 20.6311 1.68395 24.0291 0L24.9191 1.3037C23.301 2.28148 21.8177 3.66666 20.4693 5.45926C19.1748 7.19753 18.5275 8.96296 18.5275 10.7556C18.5275 11.2444 18.6624 11.6518 18.932 11.9778C19.2017 12.2494 19.6063 12.3852 20.1456 12.3852C21.4941 12.3852 22.6268 12.8741 23.5437 13.8518C24.5146 14.7753 25 15.916 25 17.2741C25 18.6321 24.5146 19.7728 23.5437 20.6963C22.6268 21.5654 21.4941 22 20.1456 22Z" fill="#6D58B6"/>
</svg>
