<svg width="40" height="36" viewBox="0 0 40 36" fill="none" xmlns="http://www.w3.org/2000/svg">
<path d="M9.83819 36C6.81769 36 4.40129 34.8889 2.589 32.6667C0.862999 30.3556 0 27.3778 0 23.7333C0 18.7556 1.2945 14.2667 3.88349 10.2667C6.55879 6.17777 10.6149 2.75555 16.0518 0L17.4757 2.13333C14.8867 3.73333 12.5135 6 10.356 8.93333C8.28479 11.7778 7.24919 14.6667 7.24919 17.6C7.24919 18.4 7.46494 19.0667 7.89644 19.6C8.32794 20.0444 8.97519 20.2667 9.83819 20.2667C11.9957 20.2667 13.808 21.0667 15.2751 22.6667C16.8285 24.1778 17.6052 26.0444 17.6052 28.2667C17.6052 30.4889 16.8285 32.3556 15.2751 33.8667C13.808 35.2889 11.9957 36 9.83819 36ZM32.233 36C29.2125 36 26.7961 34.8889 24.9838 32.6667C23.2578 30.3556 22.3948 27.3778 22.3948 23.7333C22.3948 18.7556 23.6893 14.2667 26.2783 10.2667C28.9536 6.17777 33.0097 2.75555 38.4466 0L39.8705 2.13333C37.2816 3.73333 34.9083 6 32.7508 8.93333C30.6796 11.7778 29.644 14.6667 29.644 17.6C29.644 18.4 29.8598 19.0667 30.2913 19.6C30.7228 20.0444 31.37 20.2667 32.233 20.2667C34.3905 20.2667 36.2028 21.0667 37.6699 22.6667C39.2233 24.1778 40 26.0444 40 28.2667C40 30.4889 39.2233 32.3556 37.6699 33.8667C36.2028 35.2889 34.3905 36 32.233 36Z" fill="#6D58B6"/>
</svg>
