<svg width="37" height="37" viewBox="0 0 37 37" fill="none" xmlns="http://www.w3.org/2000/svg">
<path d="M37 18.4768V18.6161C32.1721 18.6161 27.6224 19.0805 24.1871 19.916H24.1408C22.0518 20.4266 20.4268 22.0516 19.9161 24.1406V24.187C19.034 27.6224 18.57 32.1719 18.6163 37H18.3841C18.3841 32.1721 17.9197 27.6223 17.0842 24.187V24.1406C16.5735 22.0516 14.9023 20.4266 12.8596 19.916H12.8133C9.37783 19.0338 4.82839 18.5698 0.000323826 18.6161V18.5232L0 18.4768V18.3839C4.8279 18.3839 9.37759 17.9195 12.8129 17.084H12.8592C14.9482 16.527 16.5732 14.9021 17.0839 12.8594V12.813C17.966 9.37758 18.43 4.82811 18.3837 0H18.6159C18.6159 4.82794 19.0803 9.37767 19.9158 12.813V12.8594C20.4265 14.9484 22.0515 16.5734 24.1404 17.084H24.1867C27.6222 17.9662 32.1716 18.4302 36.9997 18.3839L37 18.4768Z" fill="#467F21"/>
</svg>
