<svg width="24" height="24" viewBox="0 0 24 24" fill="none" xmlns="http://www.w3.org/2000/svg">
<path d="M24 11.985V12.0753C20.8684 12.0753 17.9172 12.3765 15.6889 12.9185H15.6589C14.3039 13.2497 13.2498 14.3038 12.9186 15.6588V15.6888C12.3464 17.9172 12.0454 20.8683 12.0754 24H11.9248C11.9248 20.8684 11.6236 17.9172 11.0816 15.6888V15.6588C10.7504 14.3038 9.66635 13.2497 8.34134 12.9185H8.3113C6.08291 12.3463 3.13193 12.0453 0.000210049 12.0753V12.015L0 11.985V11.9247C3.13161 11.9247 6.08276 11.6235 8.31109 11.0815H8.34113C9.69615 10.7202 10.7502 9.66623 11.0814 8.3412V8.31117C11.6536 6.08276 11.9546 3.13174 11.9246 0H12.0752C12.0752 3.13164 12.3764 6.08281 12.9184 8.31117V8.3412C13.2496 9.69623 14.3036 10.7503 15.6587 11.0815H15.6887C17.9171 11.6537 20.8681 11.9547 23.9998 11.9247L24 11.985Z" fill="#39285E"/>
</svg>
