<svg width="27" height="27" viewBox="0 0 27 27" fill="none" xmlns="http://www.w3.org/2000/svg">
<path d="M27 13.4831V13.5847C23.4769 13.5847 20.1569 13.9236 17.65 14.5333H17.6162C16.0918 14.9059 14.906 16.0917 14.5334 17.6161V17.6499C13.8897 20.1569 13.5511 23.4768 13.5848 27H13.4154C13.4154 23.4769 13.0765 20.1568 12.4669 17.6499V17.6161C12.0942 16.0917 10.8746 14.9059 9.38401 14.5333H9.35022C6.84328 13.8896 3.52342 13.551 0.000236305 13.5847V13.5169L0 13.4831V13.4153C3.52306 13.4153 6.8431 13.0764 9.34998 12.4667H9.38377C10.9082 12.0603 12.094 10.8745 12.4666 9.38385V9.35006C13.1103 6.8431 13.4489 3.52321 13.4152 0H13.5846C13.5846 3.52309 13.9235 6.84316 14.5331 9.35006V9.38385C14.9058 10.9083 16.0916 12.0941 17.616 12.4667H17.6498C20.1567 13.1105 23.4766 13.449 26.9998 13.4153L27 13.4831Z" fill="#467F21"/>
</svg>
