<svg width="16" height="15" viewBox="0 0 16 15" fill="none" xmlns="http://www.w3.org/2000/svg">
<path fill-rule="evenodd" clip-rule="evenodd" d="M4.69758 0.722128C4.58681 0.172772 4.03298 0.0728888 3.53453 0.0229473C1.37458 -0.22676 0.433058 1.62108 0.100758 2.66985C-1.06229 6.81499 8.13135 15.7046 12.8389 14.9555C14.002 14.7557 16.1066 14.0066 15.9958 12.0588C15.9404 11.6094 15.885 11.11 15.2758 10.9601L12.0636 9.7116C11.6759 9.56177 11.1774 9.7116 10.8451 9.91136L9.90362 10.6105C9.57132 10.8603 9.2944 10.8103 9.12825 10.6605C7.35598 9.7116 5.52833 7.96364 4.58681 6.31557C4.47605 6.11581 4.42066 5.8661 4.69758 5.56645L5.52833 4.81733C5.80525 4.51768 5.9714 4.06821 5.86063 3.71862L4.69758 0.722128Z" fill="#5F4A9E"/>
</svg>
