<svg width="28" height="28" viewBox="0 0 28 28" fill="none" xmlns="http://www.w3.org/2000/svg">
<path fill-rule="evenodd" clip-rule="evenodd" d="M17.3426 15.6368C16.8126 15.8534 16.4741 16.683 16.1307 17.1068C15.9546 17.3239 15.7446 17.3578 15.4739 17.249C13.4849 16.4566 11.9602 15.1293 10.8627 13.2989C10.6767 13.0151 10.7101 12.7909 10.9343 12.5273C11.2657 12.1368 11.6824 11.6933 11.7721 11.1672C11.9712 10.0034 10.4498 6.39352 8.44057 8.02922C2.65904 12.7405 18.0852 25.2361 20.8693 18.4778C21.6568 16.5621 18.2208 15.277 17.3426 15.6368ZM14.0001 25.5544C11.9553 25.5544 9.94337 25.0108 8.1819 23.9816C7.89917 23.8159 7.55737 23.7721 7.24128 23.858L3.41372 24.9085L4.747 21.9713C4.92856 21.5715 4.88207 21.1061 4.62559 20.7506C3.19935 18.7737 2.44521 16.4396 2.44521 14C2.44521 7.62836 7.62847 2.44508 14.0001 2.44508C20.3717 2.44508 25.5544 7.62836 25.5544 14C25.5544 20.3711 20.3711 25.5544 14.0001 25.5544ZM14.0001 0C6.28043 0 0.000146361 6.28031 0.000146361 14C0.000146361 16.7158 0.771236 19.3238 2.23631 21.5873L0.109521 26.2713C-0.0868063 26.7039 -0.015166 27.2103 0.292176 27.5707C0.528425 27.8469 0.87022 28 1.22295 28C2.01154 28 6.3116 26.6487 7.40589 26.3484C9.42877 27.4307 11.6977 28 14.0001 28C21.7192 28 28 21.7191 28 14C28 6.28031 21.7192 0 14.0001 0Z" fill="#E2CFFF"/>
</svg>
